<svg data-v-423bf9ae="" xmlns="http://www.w3.org/2000/svg" viewBox="0 0 428 90" class="iconLeft"><!----><!----><!----><g data-v-423bf9ae="" id="e335e141-55b1-446e-81fa-43b908d9ddc7" fill="#D7F9FF" transform="matrix(4.158004070067766,0,0,4.158004070067766,114.00434618955734,10.3430364945808)"><path d="M8.72 10.64L8.64 10.64L6.54 3.42L7.57 3.42L7.57 3.19L3.93 3.19L3.93 3.42L4.93 3.42L5.67 5.82L4.09 10.64L4.00 10.64L1.90 3.42L2.94 3.42L2.94 3.19L-0.70 3.19L-0.70 3.42L0.29 3.42L3.12 12.57L3.16 12.57C3.68 12.57 3.82 12.21 3.99 11.72L5.81 6.27L7.76 12.57L7.80 12.57C8.32 12.57 8.46 12.21 8.62 11.72L11.02 4.73C11.07 4.58 11.12 4.37 11.12 4.21C11.12 3.58 10.68 3.05 9.95 3.05C9.30 3.05 8.86 3.54 8.86 4.06C8.86 4.51 9.16 5.00 9.77 5.00C10.26 5.00 10.57 4.65 10.57 4.26C10.57 3.89 10.36 3.70 10.14 3.61C10.07 3.58 10.02 3.54 10.02 3.47C10.02 3.39 10.08 3.35 10.15 3.35C10.40 3.35 10.85 3.63 10.85 4.21C10.85 4.34 10.81 4.54 10.75 4.70ZM15.08 12.08L14.15 12.08L14.15 9.55C14.15 7.95 14.48 5.96 16.07 5.96C17.21 5.96 17.21 7.50 17.21 8.64L17.21 12.08L16.28 12.08L16.28 12.29L19.38 12.29L19.38 12.08L18.45 12.08L18.45 8.44C18.45 6.71 18.07 5.57 16.34 5.57C15.40 5.57 14.57 6.17 14.27 7.07L14.18 7.07L14.18 2.45C13.51 2.59 12.89 2.63 12.21 2.63L11.91 2.63L11.91 2.84L12.91 2.84L12.91 12.08L11.98 12.08L11.98 12.29L15.08 12.29ZM22.41 5.67C21.76 5.81 21.14 5.85 20.47 5.85L20.17 5.85L20.17 6.06L21.17 6.06L21.17 12.08L20.24 12.08L20.24 12.29L23.34 12.29L23.34 12.08L22.41 12.08ZM20.93 3.74C20.93 4.20 21.28 4.55 21.74 4.55C22.20 4.55 22.57 4.20 22.57 3.74C22.57 3.28 22.20 2.91 21.74 2.91C21.28 2.91 20.93 3.28 20.93 3.74ZM27.30 5.57C26.05 5.57 24.89 6.26 24.89 7.50C24.89 9.74 28.83 9.30 28.83 10.98C28.83 12.04 27.86 12.29 26.80 12.29C25.42 12.29 24.93 11.58 24.93 11.13C24.93 11.05 25.00 11.00 25.06 11.00C25.13 11.00 25.17 11.05 25.19 11.13C25.23 11.33 25.44 11.49 25.75 11.49C26.17 11.49 26.42 11.14 26.42 10.74C26.42 10.32 26.05 10.00 25.63 10.00C25.07 10.00 24.67 10.43 24.67 10.99C24.67 12.14 25.82 12.57 27.02 12.57C28.50 12.57 29.72 11.98 29.72 10.50C29.72 8.26 25.79 8.71 25.79 7.03C25.79 6.19 26.68 5.85 27.52 5.85C28.81 5.85 29.16 6.45 29.16 6.87C29.16 6.96 29.09 7 29.04 7C28.97 7 28.92 6.96 28.91 6.87C28.87 6.68 28.66 6.51 28.35 6.51C27.93 6.51 27.68 6.86 27.68 7.27C27.68 7.69 28.04 8.01 28.46 8.01C29.02 8.01 29.43 7.57 29.43 7.01C29.43 5.91 28.41 5.57 27.30 5.57ZM34.71 8.43C35.53 8.13 36.16 7.63 36.16 6.75C36.16 6.02 35.71 5.57 35.01 5.57C34.47 5.57 34.02 5.96 34.02 6.51C34.02 6.94 34.34 7.29 34.78 7.29C35.18 7.29 35.52 7.03 35.52 6.62C35.52 6.31 35.35 6.12 35.15 6.08C35.07 6.06 35.03 6.02 35.03 5.95C35.03 5.87 35.08 5.82 35.17 5.82C35.57 5.82 35.92 6.17 35.92 6.75C35.92 8.01 34.41 8.37 33.15 8.54L33.15 2.45C32.49 2.59 31.88 2.63 31.21 2.63L30.91 2.63L30.91 2.84L31.91 2.84L31.91 12.08L30.98 12.08L30.98 12.29L34.08 12.29L34.08 12.08L33.15 12.08L33.15 8.78C33.60 8.71 33.96 8.62 34.05 8.62L34.13 8.62C34.94 8.62 35.22 9.37 35.22 10.33L35.22 11.09C35.22 12.18 35.80 12.47 36.43 12.47C36.60 12.47 36.88 12.46 37.18 12.38L37.16 12.21C37.06 12.24 36.97 12.25 36.90 12.25C36.55 12.25 36.47 11.94 36.47 11.26L36.47 10.72C36.47 9.31 36.26 8.53 34.71 8.46ZM41.20 5.57C39.16 5.57 38.08 7.03 38.08 9.07C38.08 11.09 39.03 12.57 41.05 12.57C42.48 12.57 43.37 11.62 43.67 10.30L43.41 10.28C43.16 11.30 42.52 12.18 41.37 12.18C39.97 12.18 39.44 11.03 39.44 9.63L39.44 9.23L40.10 9.23C41.82 9.23 43.67 9.09 43.67 7.36C43.67 6.09 42.48 5.57 41.20 5.57ZM39.44 8.97L39.44 8.58C39.44 7.29 39.79 5.81 41.08 5.81C41.96 5.81 42.31 6.48 42.31 7.36C42.31 8.75 41.31 8.97 39.93 8.97ZM47.95 15.55C48.50 15.55 48.94 15.13 48.94 14.59C48.94 14.15 48.62 13.80 48.19 13.80C47.78 13.80 47.45 14.07 47.45 14.48C47.45 14.78 47.61 14.99 47.81 15.04C47.89 15.05 47.94 15.09 47.94 15.16C47.94 15.25 47.88 15.29 47.80 15.29C47.25 15.29 46.66 14.71 46.66 13.73C46.66 12.52 47.87 11.83 48.75 11.24C49.92 10.46 50.60 9.24 50.60 7.76C50.60 6.59 50.18 5.57 49.07 5.57C48.51 5.57 48.02 5.95 48.02 6.54C48.02 6.97 48.34 7.35 48.79 7.35C49.27 7.35 49.52 7.06 49.53 6.65C49.53 6.33 49.36 6.13 49.15 6.09C49.07 6.08 49.03 6.03 49.03 5.96C49.03 5.87 49.11 5.84 49.21 5.84C49.34 5.84 49.48 5.88 49.53 5.91C50.12 6.15 50.34 6.99 50.34 7.81C50.34 9.53 49.10 10.92 48.34 10.92C47.14 10.92 46.52 9.06 46.52 6.52L46.52 5.67C45.85 5.81 45.23 5.85 44.55 5.85L44.25 5.85L44.25 6.06L45.25 6.06L45.25 6.85C45.25 10.05 46.48 11.56 47.63 11.63L47.64 11.69C46.93 12.21 46.41 12.89 46.41 13.78C46.41 14.81 47.01 15.55 47.95 15.55ZM56.00 12.29L59.64 12.29L59.64 12.07L58.48 12.07L58.48 3.72C59.12 3.91 59.75 4.03 60.28 4.03C61.68 4.03 62.29 3.14 62.29 2.32C62.29 1.71 61.81 1.12 61.07 1.12C60.41 1.12 59.98 1.61 59.98 2.13C59.98 2.58 60.27 3.07 60.89 3.07C61.38 3.07 61.68 2.72 61.68 2.32C61.68 1.96 61.47 1.76 61.25 1.68C61.18 1.65 61.14 1.61 61.14 1.54C61.14 1.46 61.19 1.41 61.26 1.41C61.56 1.41 62.03 1.74 62.03 2.34C62.03 3.05 61.45 3.77 60.28 3.77C59.47 3.77 58.44 3.44 57.34 3.11C56.53 2.86 55.48 2.35 54.61 2.35C54.31 2.35 54.01 2.42 53.77 2.58C53.45 2.80 53.24 3.14 53.24 3.57C53.24 4.23 53.73 4.66 54.25 4.66C54.70 4.66 55.19 4.37 55.19 3.75C55.19 3.26 54.84 2.95 54.45 2.95C54.08 2.95 53.89 3.16 53.80 3.39C53.77 3.46 53.73 3.50 53.66 3.50C53.58 3.50 53.54 3.44 53.54 3.37C53.54 3.21 53.65 2.98 53.87 2.81C54.08 2.66 54.33 2.60 54.63 2.60C55.33 2.60 56.14 2.98 56.78 3.19L57.02 3.28L57.02 12.07L56.00 12.07ZM64.26 5.57C63.14 5.57 62.01 6.03 62.01 7.15C62.01 7.71 62.41 8.15 62.97 8.15C63.39 8.15 63.76 7.83 63.76 7.41C63.76 7 63.50 6.65 63.08 6.65C62.78 6.65 62.57 6.82 62.52 7.01C62.51 7.10 62.47 7.14 62.40 7.14C62.34 7.14 62.27 7.10 62.27 7.01C62.27 6.59 62.69 5.85 64.04 5.85C65.41 5.85 65.76 6.71 65.76 8.08L65.76 8.76C63.90 8.72 61.50 8.89 61.50 10.75C61.50 11.98 62.57 12.57 63.80 12.57C64.82 12.57 65.62 12.01 65.87 11.02L65.95 11.02C65.95 11.76 66.04 12.57 66.78 12.57C67.79 12.57 68.10 11.41 68.19 10.40L67.94 10.37C67.84 11.28 67.61 11.98 67.26 11.98C67.06 11.98 67.00 11.73 67.00 11.41L67.00 8.93C67.00 6.61 66.58 5.57 64.26 5.57ZM65.76 9.95C65.76 11.09 65.27 12.18 64.13 12.18C63.27 12.18 62.86 11.56 62.86 10.70C62.86 9.17 64.25 8.97 65.76 9.02ZM70.90 15.09L70.90 11.42L70.98 11.42C71.33 12.17 72.00 12.57 72.81 12.57C74.69 12.57 75.39 10.91 75.39 9.03C75.39 7.24 74.70 5.57 72.91 5.57C71.96 5.57 71.30 6.22 70.98 7.13L70.90 7.13L70.90 5.67C70.24 5.81 69.62 5.85 68.95 5.85L68.66 5.85L68.66 6.06L69.65 6.06L69.65 15.09L68.73 15.09L68.73 15.30L71.82 15.30L71.82 15.09ZM70.87 9.06C70.87 7.88 71.40 5.96 72.58 5.96C73.89 5.96 74.03 7.71 74.03 9.03C74.03 10.37 73.95 12.18 72.60 12.18C71.32 12.18 70.87 10.85 70.87 9.56Z"></path></g><!----><g data-v-423bf9ae="" id="c0535d94-6e0d-4bf2-a2aa-643e641282ea" transform="matrix(1.0193333644409188,0,0,1.0193333644409188,-4.649670740064103,-5.113158194462848)" stroke="none" fill="#D7F9FF"><path d="M83.792 43.769c-2.476-1.656-5.974-2.787-10.396-3.361-4.319-.561-8.032-.533-11.367.077-2.198.402-4.373 1.002-6.293 1.735a61.5 61.5 0 0 0-1.854.754.955.955 0 0 0-.16-.539c-.23-.35-.588-.464-1.358-.48-.172-.369-.513-.536-1.102-.698l-.138-.038a9.282 9.282 0 0 0-1.153-.26l-.291-.043c-1.215-.181-2.471-.367-3.735.459-.281.185-.587.29-.941.411-.31.107-.617.215-.916.367l-.182.092c-.635.32-1.354.683-1.918 1.168l-.531.457c-8.387-.2-17.562.833-24.294 6.194-2.193 1.748-2.902 3.654-2.664 5.482l1.03 14.047c0 4.592 16.233 10.418 34.479 10.418 18.245 0 34.479-5.826 34.478-10.393.185-3.975 1.104-23.801 1.105-23.895.006-.221.022-.736-1.799-1.954zM27.375 54.107c-.074.256-.158.545-.194.861-.022.199-.092.412-.156.627-.07.232-.133.488-.18.75a34.525 34.525 0 0 1-3.102.615c.171-.197.331-.414.455-.672.236-.492.503-.67 1.034-1.02.158-.104.326-.215.508-.344.664-.469.977-1.033 1.254-1.529.11-.201.219-.377.337-.541.01.172.058.344.17.523.034.176-.04.434-.126.73zm2.81 1.291c-.509.17-1.01.311-1.513.459a4.31 4.31 0 0 0 .154-.701c.022-.201.084-.396.14-.586.128-.441.272-.939.161-1.51a1.602 1.602 0 0 0-.107-.346 1.96 1.96 0 0 1 .131-.229c.142-.225.337-.533.365-.963a1.21 1.21 0 0 0-.01-.264 3.03 3.03 0 0 1 .47.004c.325.014.65-.029.962-.067.327-.04.668-.081.89-.038.232.047.399.113.554.176.37.145.79.314 1.526.236.88-.086 1.422-.029 2.072.219l.23.084c.208.07.27.096.309.141.021.023.186.164.426.359-2.175 1.181-4.419 2.239-6.76 3.026zm9.443-7.968l-.014.242c-.005.056-.049.128-.15.278-.163.241-.41.607-.435 1.143-.005.125.01.241.034.374-.08.084-.176.193-.253.33-.162.284-.4 1.049-.225 1.661-.027.014-.055.031-.082.047-.36-.273-.66-.509-.744-.588-.334-.379-.711-.508-1.014-.611l-.177-.062c-1.032-.394-1.876-.412-2.823-.32-.342.035-.473-.019-.76-.13a4.515 4.515 0 0 0-.835-.258c-.482-.095-.979-.035-1.416.019-.24.029-.473.064-.789.051-.506-.024-1.437-.06-1.997.898a4.519 4.519 0 0 1-.447.226c-.383.169-.818.36-1.18.737-.36.377-.582.775-.776 1.127-.228.408-.406.73-.762.982-.165.117-.319.219-.463.312-.607.4-1.182.779-1.616 1.686-.159.332-.484.596-.861.902a6.983 6.983 0 0 0-.848.775c-.301.014-.67.029-1.099.029-1.574 0-2.771-.205-3.511-.578a4.732 4.732 0 0 1-.266-2.334c.443-3.256 5.282-5.236 7.854-6.267 5.331-2.137 11.009-2.665 16.69-2.583l-.005.056c0 .041.001.082-.002.106-.033.152-.036.161-.25.337-.605.498-.752.762-.778 1.413zm.888 2.889a1.29 1.29 0 0 0 .186-.363c.091-.296.036-.566-.017-.791.003-.062.046-.132.152-.289.165-.244.391-.579.429-1.077l.018-.302.001-.054c.045-.041.103-.087.176-.147a4.35 4.35 0 0 0 .202-.178l.319.333c.062.062.132.131.137.207.019.16.045.402.184.642.166.284.391.446.626.549-.798.491-1.603.982-2.413 1.47zm6.005-3.652c-.488.289-.972.59-1.458.885l-.006-.162-.757-.039a5.703 5.703 0 0 0-.37 0c-.054.001-.118.008-.181.002a1.478 1.478 0 0 0-.184-.565l-.01-.018c.084-.141.149-.305.169-.494a1.119 1.119 0 0 0-.186-.762c.008-.073.02-.159.028-.226.035-.257.086-.628.022-.995.335-.206.712-.396 1.06-.572l.187-.094c.229-.116.466-.195.703-.276.4-.138.855-.294 1.31-.591.704-.459 1.406-.382 2.586-.208l.3.044c.33.047.633.131.951.218l.155.042.016.004.042.775.828-.022.185-.004c-.008.073.003.152.011.231a60.865 60.865 0 0 0-5.401 2.827z"></path><path d="M94.683 15.562c0-7.123-26.722-9.709-44.683-9.709S5.317 8.439 5.317 15.562c0 .019.007.037.007.057h-.005L8.63 80.102c0 4.258 9.581 8.107 12.518 9.186C26.09 91.102 36.411 94.146 50 94.146c13.588 0 23.91-3.045 28.853-4.859 2.937-1.078 12.518-4.928 12.516-9.129l3.313-64.54h-.006c0-.019.007-.037.007-.056zM10.837 80.045l-.155-3.023c3.075 2.539 8.158 4.543 10.168 5.271 1.253.455 2.85.99 4.754 1.531-.836 1.273-1.676 2.549-2.507 3.828-7.611-2.609-12.259-5.781-12.26-7.607zm16.366 8.871a68.598 68.598 0 0 1-2.263-.66c.104-.111.207-.223.306-.34.938-1.104 1.771-2.303 2.62-3.486a76.49 76.49 0 0 0 2.3.553c-.995 1.296-1.951 2.642-2.963 3.933zm62.295-15.373C88.205 77.199 71.56 84.945 50 84.945c-21.557 0-38.199-7.744-39.497-11.4l-2.8-54.554c.881.572 1.999 1.115 3.382 1.631 2.465.918 5.689 1.735 9.585 2.429 3.459.613 7.363 1.112 11.603 1.483 5.598.49 11.562.738 17.728.738 8.004 0 15.83-.43 22.634-1.242 7.143-.852 12.922-2.087 16.71-3.572 1.192-.468 2.163-.959 2.953-1.474l-2.8 54.559zm2.974-57.969c-.009.425-.502 1.053-1.704 1.763-.062-.042-.114-.095-.187-.125-6.405-2.666-16.315-4.018-29.455-4.018a1.104 1.104 0 0 0 0 2.208c3.902 0 7.503.122 10.802.359l11.368 1.54a42.35 42.35 0 0 1 4.693 1.296c-3.621 1.33-8.986 2.448-15.617 3.238-6.719.803-14.455 1.227-22.372 1.227-6.102 0-12.002-.246-17.535-.729-4.175-.366-8.014-.856-11.409-1.458-3.764-.67-6.859-1.452-9.199-2.324-3.181-1.185-4.32-2.315-4.329-2.982v-.014C7.548 12.424 23.701 8.062 50 8.062c26.291 0 42.442 4.36 42.473 7.492l-.001.02z"></path><circle cx="57.057" cy="14.299" r="1.274"></circle></g><!----></svg>